<mxfile host="app.diagrams.net" modified="2023-09-22T17:40:13.329Z" agent="Mozilla/5.0 (Windows NT 10.0; Win64; x64) AppleWebKit/537.36 (KHTML, like Gecko) Chrome/114.0.0.0 YaBrowser/23.7.5.734 Yowser/2.5 Safari/537.36" etag="SIV92pmtiGy3sye3pNyn" version="21.7.5" type="device">
  <diagram name="Page-1" id="c4acf3e9-155e-7222-9cf6-157b1a14988f">
    <mxGraphModel dx="1386" dy="791" grid="1" gridSize="10" guides="1" tooltips="1" connect="1" arrows="1" fold="1" page="1" pageScale="1" pageWidth="850" pageHeight="1100" background="none" math="0" shadow="0">
      <root>
        <mxCell id="0" />
        <mxCell id="1" parent="0" />
        <mxCell id="17acba5748e5396b-1" value="frame" style="shape=umlFrame;whiteSpace=wrap;html=1;rounded=0;shadow=0;comic=0;labelBackgroundColor=none;strokeWidth=1;fontFamily=Verdana;fontSize=10;align=center;" parent="1" vertex="1">
          <mxGeometry x="20" y="20" width="820" height="1060" as="geometry" />
        </mxCell>
        <mxCell id="ITslYHS8hms71UDTEXLn-1" value="Нейронная сеть" style="html=1;whiteSpace=wrap;" vertex="1" parent="1">
          <mxGeometry x="680" y="250" width="110" height="50" as="geometry" />
        </mxCell>
        <mxCell id="ITslYHS8hms71UDTEXLn-2" value="БД" style="html=1;whiteSpace=wrap;" vertex="1" parent="1">
          <mxGeometry x="250" y="250" width="110" height="50" as="geometry" />
        </mxCell>
        <mxCell id="ITslYHS8hms71UDTEXLn-3" value="Сотрудник" style="html=1;whiteSpace=wrap;" vertex="1" parent="1">
          <mxGeometry x="40" y="190" width="110" height="50" as="geometry" />
        </mxCell>
        <mxCell id="ITslYHS8hms71UDTEXLn-4" value="Фотография" style="html=1;whiteSpace=wrap;" vertex="1" parent="1">
          <mxGeometry x="40" y="320" width="110" height="50" as="geometry" />
        </mxCell>
        <mxCell id="ITslYHS8hms71UDTEXLn-6" value="Подготовленные данные" style="html=1;whiteSpace=wrap;" vertex="1" parent="1">
          <mxGeometry x="460" y="250" width="110" height="50" as="geometry" />
        </mxCell>
        <mxCell id="ITslYHS8hms71UDTEXLn-7" value="Обученная модель" style="html=1;whiteSpace=wrap;" vertex="1" parent="1">
          <mxGeometry x="680" y="80" width="110" height="50" as="geometry" />
        </mxCell>
        <mxCell id="ITslYHS8hms71UDTEXLn-8" value="1" style="endArrow=open;html=1;endSize=12;startArrow=diamondThin;startSize=14;startFill=1;edgeStyle=orthogonalEdgeStyle;align=left;verticalAlign=bottom;rounded=0;exitX=0.5;exitY=1;exitDx=0;exitDy=0;entryX=0.5;entryY=0;entryDx=0;entryDy=0;" edge="1" parent="1" source="ITslYHS8hms71UDTEXLn-3" target="ITslYHS8hms71UDTEXLn-4">
          <mxGeometry x="-1" y="3" relative="1" as="geometry">
            <mxPoint x="120" y="450" as="sourcePoint" />
            <mxPoint x="280" y="450" as="targetPoint" />
          </mxGeometry>
        </mxCell>
        <mxCell id="ITslYHS8hms71UDTEXLn-9" value="1" style="endArrow=open;html=1;endSize=12;startArrow=diamondThin;startSize=14;startFill=0;edgeStyle=orthogonalEdgeStyle;align=left;verticalAlign=bottom;rounded=0;exitX=1;exitY=0.5;exitDx=0;exitDy=0;entryX=0;entryY=0.5;entryDx=0;entryDy=0;" edge="1" parent="1" source="ITslYHS8hms71UDTEXLn-4" target="ITslYHS8hms71UDTEXLn-2">
          <mxGeometry x="-1" y="3" relative="1" as="geometry">
            <mxPoint x="220" y="350" as="sourcePoint" />
            <mxPoint x="380" y="350" as="targetPoint" />
          </mxGeometry>
        </mxCell>
        <mxCell id="ITslYHS8hms71UDTEXLn-10" value="1" style="endArrow=open;html=1;endSize=12;startArrow=diamondThin;startSize=14;startFill=1;edgeStyle=orthogonalEdgeStyle;align=left;verticalAlign=bottom;rounded=0;exitX=1;exitY=0.5;exitDx=0;exitDy=0;entryX=0;entryY=0.5;entryDx=0;entryDy=0;" edge="1" parent="1" source="ITslYHS8hms71UDTEXLn-2" target="ITslYHS8hms71UDTEXLn-6">
          <mxGeometry x="-1" y="3" relative="1" as="geometry">
            <mxPoint x="410" y="340" as="sourcePoint" />
            <mxPoint x="570" y="340" as="targetPoint" />
          </mxGeometry>
        </mxCell>
        <mxCell id="ITslYHS8hms71UDTEXLn-11" value="" style="endArrow=open;endFill=1;endSize=12;html=1;rounded=0;exitX=1;exitY=0.5;exitDx=0;exitDy=0;entryX=0;entryY=0.5;entryDx=0;entryDy=0;" edge="1" parent="1" source="ITslYHS8hms71UDTEXLn-6" target="ITslYHS8hms71UDTEXLn-1">
          <mxGeometry width="160" relative="1" as="geometry">
            <mxPoint x="570" y="360" as="sourcePoint" />
            <mxPoint x="730" y="360" as="targetPoint" />
          </mxGeometry>
        </mxCell>
        <mxCell id="ITslYHS8hms71UDTEXLn-12" value="1" style="endArrow=open;html=1;endSize=12;startArrow=diamondThin;startSize=14;startFill=1;edgeStyle=orthogonalEdgeStyle;align=left;verticalAlign=bottom;rounded=0;exitX=0.5;exitY=0;exitDx=0;exitDy=0;entryX=0.5;entryY=1;entryDx=0;entryDy=0;" edge="1" parent="1" source="ITslYHS8hms71UDTEXLn-1" target="ITslYHS8hms71UDTEXLn-7">
          <mxGeometry x="-0.8333" y="-15" relative="1" as="geometry">
            <mxPoint x="550" y="350" as="sourcePoint" />
            <mxPoint x="710" y="350" as="targetPoint" />
            <mxPoint as="offset" />
          </mxGeometry>
        </mxCell>
      </root>
    </mxGraphModel>
  </diagram>
</mxfile>
